<svg width="20" height="21" viewBox="0 0 20 21" fill="none" xmlns="http://www.w3.org/2000/svg">
<path d="M17.8417 3.02372L18.1997 2.67467V2.67467L17.8417 3.02372ZM18.4208 9.47424C18.4208 9.75038 18.6447 9.97424 18.9208 9.97424C19.197 9.97424 19.4208 9.75038 19.4208 9.47424H18.9208H18.4208ZM1.57907 3.02372L1.22107 2.67467L1.57907 3.02372ZM4.6052 1.91699C4.6052 2.19313 4.82906 2.41699 5.1052 2.41699C5.38135 2.41699 5.6052 2.19313 5.6052 1.91699H5.1052H4.6052ZM5.6052 0.5C5.6052 0.223858 5.38135 0 5.1052 0C4.82906 0 4.6052 0.223858 4.6052 0.5H5.1052H5.6052ZM13.8156 1.91699C13.8156 2.19313 14.0395 2.41699 14.3156 2.41699C14.5917 2.41699 14.8156 2.19313 14.8156 1.91699H14.3156H13.8156ZM14.8156 0.5C14.8156 0.223858 14.5917 0 14.3156 0C14.0395 0 13.8156 0.223858 13.8156 0.5H14.3156H14.8156ZM0.96052 6.14027C0.684378 6.14027 0.46052 6.36413 0.46052 6.64027C0.46052 6.91641 0.684378 7.14027 0.96052 7.14027V6.64027V6.14027ZM18.4603 7.14027C18.7364 7.14027 18.9603 6.91641 18.9603 6.64027C18.9603 6.36413 18.7364 6.14027 18.4603 6.14027V6.64027V7.14027ZM9 19.4208C9.27614 19.4208 9.5 19.197 9.5 18.9208C9.5 18.6447 9.27614 18.4208 9 18.4208V18.9208V19.4208ZM14.5 15.9999H14C14 16.1325 14.0527 16.2597 14.1464 16.3534L14.5 15.9999ZM15 13.9999C15 13.7237 14.7761 13.4999 14.5 13.4999C14.2239 13.4999 14 13.7237 14 13.9999H14.5H15ZM15.3964 17.6034C15.5917 17.7987 15.9083 17.7987 16.1036 17.6034C16.2988 17.4082 16.2988 17.0916 16.1036 16.8963L15.75 17.2499L15.3964 17.6034ZM9.985 11.3259C9.75083 11.4722 9.67964 11.7807 9.826 12.0149C9.97235 12.2491 10.2808 12.3202 10.515 12.1739L10.25 11.7499L9.985 11.3259ZM12.515 10.9239C12.7492 10.7775 12.8204 10.4691 12.674 10.2349C12.5277 10.0007 12.2192 9.92954 11.985 10.0759L12.25 10.4999L12.515 10.9239ZM18.485 12.1739C18.7192 12.3202 19.0276 12.2491 19.174 12.0149C19.3204 11.7807 19.2492 11.4722 19.015 11.3259L18.75 11.7499L18.485 12.1739ZM17.015 10.0759C16.7808 9.92954 16.4724 10.0007 16.326 10.2349C16.1796 10.4691 16.2508 10.7775 16.485 10.9239L16.75 10.4999L17.015 10.0759ZM7.86832 1.91699V2.41699H11.5525V1.91699V1.41699H7.86832V1.91699ZM0.5 11.3636H1V9.47424H0.5H0V11.3636H0.5ZM7.86832 18.9208V18.4208C6.1171 18.4208 4.85526 18.4197 3.8941 18.2872C2.94864 18.1568 2.36877 17.9078 1.93707 17.465L1.57907 17.8141L1.22107 18.1631C1.86843 18.8271 2.69646 19.1315 3.7575 19.2778C4.80283 19.4219 6.14608 19.4208 7.86832 19.4208V18.9208ZM0.5 11.3636H0C0 13.131 -0.00101036 14.5057 0.139125 15.5747C0.280978 16.6569 0.575421 17.5009 1.22107 18.1631L1.57907 17.8141L1.93707 17.465C1.50365 17.0205 1.25855 16.4205 1.13064 15.4447C1.00101 14.4558 1 13.1586 1 11.3636H0.5ZM11.5525 1.91699V2.41699C13.3037 2.41699 14.5655 2.4181 15.5267 2.55064C16.4722 2.68101 17.052 2.93 17.4837 3.37277L17.8417 3.02372L18.1997 2.67467C17.5524 2.0107 16.7244 1.70632 15.6633 1.56001C14.618 1.41587 13.2747 1.41699 11.5525 1.41699V1.91699ZM18.9208 9.47424H19.4208C19.4208 7.70677 19.4218 6.33211 19.2817 5.26307C19.1398 4.18092 18.8454 3.33687 18.1997 2.67467L17.8417 3.02372L17.4837 3.37277C17.9172 3.8173 18.1623 4.41725 18.2902 5.39305C18.4198 6.38196 18.4208 7.67919 18.4208 9.47424H18.9208ZM7.86832 1.91699V1.41699C6.14608 1.41699 4.80283 1.41587 3.7575 1.56001C2.69646 1.70632 1.86843 2.0107 1.22107 2.67467L1.57907 3.02372L1.93707 3.37277C2.36877 2.93 2.94864 2.68101 3.8941 2.55064C4.85526 2.4181 6.11711 2.41699 7.86832 2.41699V1.91699ZM0.5 9.47424H1C1 7.67919 1.00101 6.38196 1.13064 5.39305C1.25855 4.41725 1.50365 3.8173 1.93707 3.37277L1.57907 3.02372L1.22107 2.67467C0.575421 3.33687 0.280978 4.18092 0.139125 5.26307C-0.00101036 6.33211 0 7.70677 0 9.47424H0.5ZM5.1052 1.91699H5.6052V0.5H5.1052H4.6052V1.91699H5.1052ZM14.3156 1.91699H14.8156V0.5H14.3156H13.8156V1.91699H14.3156ZM0.96052 6.64027V7.14027H18.4603V6.64027V6.14027H0.96052V6.64027ZM7.86832 18.9208V19.4208H9V18.9208V18.4208H7.86832V18.9208ZM19 15.9999H18.5C18.5 18.209 16.7091 19.9999 14.5 19.9999V20.4999V20.9999C17.2614 20.9999 19.5 18.7613 19.5 15.9999H19ZM14.5 20.4999V19.9999C12.2909 19.9999 10.5 18.209 10.5 15.9999H10H9.5C9.5 18.7613 11.7386 20.9999 14.5 20.9999V20.4999ZM10 15.9999H10.5C10.5 13.7908 12.2909 11.9999 14.5 11.9999V11.4999V10.9999C11.7386 10.9999 9.5 13.2385 9.5 15.9999H10ZM14.5 11.4999V11.9999C16.7091 11.9999 18.5 13.7908 18.5 15.9999H19H19.5C19.5 13.2385 17.2614 10.9999 14.5 10.9999V11.4999ZM14.5 15.9999H15V13.9999H14.5H14V15.9999H14.5ZM14.5 15.9999L14.1464 16.3534L15.3964 17.6034L15.75 17.2499L16.1036 16.8963L14.8536 15.6463L14.5 15.9999ZM10.25 11.7499L10.515 12.1739L12.515 10.9239L12.25 10.4999L11.985 10.0759L9.985 11.3259L10.25 11.7499ZM18.75 11.7499L19.015 11.3259L17.015 10.0759L16.75 10.4999L16.485 10.9239L18.485 12.1739L18.75 11.7499Z" fill="#424242"/>
</svg>
